<svg width="21" height="23" viewBox="0 0 21 23" fill="none" xmlns="http://www.w3.org/2000/svg">
<path d="M17.4706 8.98028L7.54902 22.5685L0 17.1764L8.62745 1.21558L17.4706 8.98028Z" fill="#1F8EFF"/>
<path d="M12.7255 22.7844L1.50977 16.9609L11.4313 0.784424L20.9215 8.76482L12.7255 22.7844Z" fill="#AED6FF"/>
<path d="M12.9412 12L10.5686 22.1372L4.52942 19.1176L8.62746 16.5294L9.27452 8.33329L14.8824 2.50977L20.2745 7.47055L12.9412 12Z" fill="#E4F1FF"/>
<path d="M4.77331 16.8507C4.70681 16.9659 4.58795 17.0001 4.47277 16.9336L3.66022 16.4644L3.65604 16.4717L3.67206 16.666C3.67588 16.7117 3.67109 16.7367 3.65015 16.773C3.60878 16.8447 3.52334 16.8691 3.44716 16.8251C3.39366 16.7942 3.3627 16.7473 3.35756 16.6766L3.33603 16.3474C3.32923 16.2419 3.36019 16.1715 3.40313 16.0972C3.48324 15.9584 3.61379 15.925 3.74528 16.0009L4.69477 16.5491C4.80994 16.6156 4.8398 16.7356 4.77331 16.8507ZM5.37751 15.8357C5.17017 16.1948 4.7781 16.2707 4.34552 16.021C3.91023 15.7696 3.78968 15.3941 3.99545 15.0377C4.20121 14.6813 4.58526 14.5983 5.02056 14.8497C5.45223 15.0989 5.58484 15.4765 5.37751 15.8357ZM5.08187 15.665C5.14993 15.5471 5.06915 15.4001 4.79528 15.242C4.5205 15.0833 4.35915 15.0905 4.29108 15.2084C4.22302 15.3263 4.29693 15.4705 4.57171 15.6292C4.84558 15.7873 5.0138 15.7829 5.08187 15.665ZM6.13356 14.5261C5.92622 14.8853 5.53415 14.9612 5.10157 14.7114C4.66628 14.4601 4.54573 14.0846 4.75149 13.7282C4.95726 13.3718 5.34131 13.2888 5.7766 13.5402C6.20827 13.7894 6.34089 14.167 6.13356 14.5261ZM5.83792 14.3555C5.90598 14.2376 5.8252 14.0906 5.55133 13.9324C5.27655 13.7738 5.1152 13.781 5.04713 13.8989C4.97907 14.0168 5.05298 14.161 5.32776 14.3197C5.60163 14.4778 5.76985 14.4733 5.83792 14.3555ZM6.8896 13.2166C6.68227 13.5757 6.29019 13.6517 5.85762 13.4019C5.42232 13.1506 5.30177 12.7751 5.50754 12.4187C5.71331 12.0623 6.09736 11.9793 6.53265 12.2306C6.96432 12.4799 7.09694 12.8575 6.8896 13.2166ZM6.59396 13.0459C6.66203 12.9281 6.58125 12.7811 6.30737 12.6229C6.03259 12.4643 5.87124 12.4715 5.80318 12.5894C5.73511 12.7073 5.80903 12.8515 6.08381 13.0102C6.35768 13.1683 6.5259 13.1638 6.59396 13.0459Z" fill="#870F0F"/>
<path d="M17.0538 12.1592C16.9779 12.243 16.8729 12.25 16.7892 12.1741L16.1982 11.6383L16.1935 11.6436L16.1719 11.8079C16.1668 11.8466 16.1584 11.8665 16.1345 11.8929C16.0872 11.945 16.0118 11.95 15.9564 11.8998C15.9175 11.8645 15.9002 11.8199 15.9086 11.7603L15.9499 11.4829C15.9632 11.394 16.0015 11.341 16.0506 11.287C16.142 11.186 16.2565 11.1817 16.3522 11.2684L17.0427 11.8944C17.1265 11.9704 17.1297 12.0755 17.0538 12.1592ZM17.7382 11.4242C17.5014 11.6854 17.1619 11.6781 16.8473 11.3929C16.5308 11.1059 16.498 10.7722 16.733 10.513C16.968 10.2538 17.302 10.2538 17.6186 10.5408C17.9326 10.8254 17.9749 11.1631 17.7382 11.4242ZM17.5232 11.2293C17.6009 11.1436 17.5602 11.0069 17.361 10.8263C17.1611 10.6452 17.0258 10.6222 16.948 10.7079C16.8703 10.7936 16.9058 10.9268 17.1057 11.108C17.3048 11.2885 17.4454 11.3151 17.5232 11.2293ZM18.6016 10.4719C18.3648 10.733 18.0254 10.7257 17.7108 10.4405C17.3942 10.1535 17.3615 9.8198 17.5964 9.5606C17.8314 9.3014 18.1655 9.30143 18.482 9.58844C18.796 9.87306 18.8384 10.2107 18.6016 10.4719ZM18.3866 10.2769C18.4643 10.1912 18.4236 10.0545 18.2244 9.87396C18.0246 9.69278 17.8892 9.66979 17.8115 9.75553C17.7337 9.84127 17.7692 9.97441 17.9691 10.1556C18.1683 10.3362 18.3088 10.3627 18.3866 10.2769ZM19.465 9.51949C19.2282 9.78066 18.8888 9.77334 18.5742 9.48813C18.2576 9.20112 18.2249 8.86743 18.4599 8.60823C18.6949 8.34903 19.0289 8.34905 19.3455 8.63606C19.6594 8.92068 19.7018 9.25831 19.465 9.51949ZM19.25 9.32456C19.3277 9.23882 19.287 9.10216 19.0878 8.92158C18.888 8.74041 18.7526 8.71742 18.6749 8.80316C18.5971 8.8889 18.6327 9.02203 18.8325 9.20321C19.0317 9.38378 19.1723 9.4103 19.25 9.32456Z" fill="#870F0F"/>
</svg>
