<svg width="19" height="18" viewBox="0 0 19 18" fill="none" xmlns="http://www.w3.org/2000/svg">
<path d="M9.5 17.6646C4.75195 17.6646 0.842285 13.7549 0.842285 9.00684C0.842285 4.26709 4.75195 0.349121 9.4917 0.349121C14.2397 0.349121 18.1577 4.26709 18.1577 9.00684C18.1577 13.7549 14.248 17.6646 9.5 17.6646ZM5.41602 10.144H9.4917C9.89844 10.144 10.2139 9.82031 10.2139 9.42188V4.10107C10.2139 3.69434 9.89844 3.37891 9.4917 3.37891C9.09326 3.37891 8.77783 3.69434 8.77783 4.10107V8.69971H5.41602C5.00928 8.69971 4.69385 9.01514 4.69385 9.42188C4.69385 9.82031 5.00928 10.144 5.41602 10.144Z" fill="black"/>
</svg>
