<svg width="18" height="18" viewBox="0 0 18 18" fill="none" xmlns="http://www.w3.org/2000/svg">
<path d="M5.64062 13.0327C2.94287 10.3516 0.90918 7.14746 0.90918 4.54102C0.90918 3.38721 1.30762 2.35791 2.2207 1.53613C2.73535 1.05469 3.30811 0.822266 3.92236 0.822266C4.47852 0.822266 5.02637 1.03809 5.4082 1.56934L7.24268 4.15088C7.56641 4.60742 7.70752 4.97266 7.70752 5.29639C7.70752 5.72803 7.4668 6.09326 7.06006 6.5083L6.4126 7.14746C6.32129 7.23877 6.27979 7.37158 6.27979 7.48779C6.27979 7.62061 6.32959 7.77002 6.396 7.86133C6.71973 8.41748 7.5498 9.38037 8.42139 10.252C9.29297 11.1235 10.2559 11.9536 10.812 12.2773C10.9033 12.3438 11.0527 12.3936 11.1938 12.3936C11.3018 12.3936 11.4346 12.3521 11.5259 12.2607L12.165 11.6133C12.5801 11.2065 12.9453 10.9658 13.377 10.9658C13.7007 10.9658 14.0659 11.0986 14.5225 11.4307L17.104 13.2651C17.6353 13.6553 17.8594 14.1948 17.8594 14.751C17.8594 15.3486 17.6187 15.9214 17.1372 16.4526C16.3237 17.3657 15.2944 17.7642 14.1323 17.7642C11.5259 17.7642 8.32178 15.7305 5.64062 13.0327Z" fill="#1F8EFF"/>
</svg>
