<svg width="34" height="30" viewBox="0 0 34 30" fill="none" xmlns="http://www.w3.org/2000/svg">
<path d="M5.34473 29.9658C2.57471 29.9658 0.758301 27.877 0.758301 25.3794C0.758301 24.6074 0.955078 23.8203 1.37891 23.0786L13.0342 2.70459C13.9121 1.19092 15.4409 0.403809 17 0.403809C18.5439 0.403809 20.0576 1.17578 20.9507 2.70459L32.606 23.0635C33.0298 23.8052 33.2266 24.6074 33.2266 25.3794C33.2266 27.877 31.4102 29.9658 28.6401 29.9658H5.34473ZM17.0151 19.1431C18.0596 19.1431 18.665 18.5527 18.7256 17.4629L18.9678 10.939C19.0283 9.80371 18.1958 9.0166 17 9.0166C15.7891 9.0166 14.9717 9.78857 15.0322 10.939L15.2744 17.478C15.3198 18.5527 15.9404 19.1431 17.0151 19.1431ZM17.0151 24.6074C18.2109 24.6074 19.1494 23.8506 19.1494 22.6851C19.1494 21.5498 18.2261 20.7778 17.0151 20.7778C15.8042 20.7778 14.8657 21.5498 14.8657 22.6851C14.8657 23.8506 15.8042 24.6074 17.0151 24.6074Z" fill="black"/>
</svg>
